/* XPM */
static char *_1183d3771594707ed0d6352dc121d74aPYF0mdgHL5dPzPH[] = {
/* columns rows colors chars-per-pixel */
"24 24 2 1 ",
"  c None",
". c #ecbe7b",
/* pixels */
"                        ",
"                        ",
"                        ",
"         ..  ..         ",
"         ..  ..         ",
"      ............      ",
"     ..............     ",
"     ..............     ",
"     ..............     ",
"   ....    .. .. ....   ",
"   ....    .. .. ....   ",
"     ..    ..    ..     ",
"     ..    ..    ..     ",
"   ....  . ..... ....   ",
"   ....    ..... ....   ",
"     ..............     ",
"     ..............     ",
"     ..............     ",
"      ............      ",
"         ..  ..         ",
"         ..  ..         ",
"                        ",
"                        ",
"                        "
};
