/* XPM */
static char *_8362ee6d1674a1d9a65ffd4c9b1f62enrDek04PxKP4t2l6[] = {
/* columns rows colors chars-per-pixel */
"24 24 2 1 ",
"  c None",
". c white",
/* pixels */
"                        ",
"                        ",
"                        ",
"                        ",
"                        ",
"  .... ....             ",
"   .... ...             ",
"    ... ....            ",
"    .... ....           ",
"     .... ... ........  ",
"      ... .... .......  ",
"      .... ....         ",
"      .... ....         ",
"      ... ...... .....  ",
"     .... ....... ....  ",
"    .... .... ...       ",
"    ... ....  ....      ",
"   .... ...    ....     ",
"  .... ....     ...     ",
"                        ",
"                        ",
"                        ",
"                        ",
"                        "
};
