/* XPM */
static char *XPM_icon[] = {
"14 16 17 1 7 8",
"  c None",
"s c #46d9ff",
"S c #46d9ff",
"r c #46d9ff",
"R c #46d9ff",
"g c #46d9ff",
"G c #46d9ff",
"y c #46d9ff",
"Y c #46d9ff",
"b c #46d9ff",
"B c #46d9ff",
"m c #46d9ff",
"M c #46d9ff",
"c c #46d9ff",
"C c #46d9ff",
"w c #46d9ff",
"W c #46d9ff",
"              ",
"              ",
"              ",
"  mm          ",
"  mmmm        ",
"  m  mmm      ",
"  m    mmm    ",
"  m      mmm  ",
"  m      mmm  ",
"  m    mmm    ",
"  m  mmm      ",
"  mmmm        ",
"  mm          ",
"              ",
"              ",
"              ",
};
