/* XPM */
static char *XPM_icon[] = {
"14 16 17 1 7 8",
"  c None",
"s c #ff6c6b",
"S c #ff6c6b",
"r c #a54242",
"R c #cc6666",
"g c #8c9440",
"G c #b5bd68",
"y c #de935f",
"Y c #f0c674",
"b c #5f819d",
"B c #81a2be",
"m c #85678f",
"M c #b294bb",
"c c #5e8d87",
"C c #8abeb7",
"w c #ff6c6b",
"W c #c5c8c6",
"              ",
"              ",
"              ",
"   www  www   ",
"   w w  w w   ",
"   w w  w w   ",
"   w w  w w   ",
"   w w  w w   ",
"   w w  w w   ",
"   w w  w w   ",
"   w w  w w   ",
"   w w  w w   ",
"   www  www   ",
"              ",
"              ",
"              ",
};
